<svg xmlns="http://www.w3.org/2000/svg" width="84.902" height="27.265" viewBox="0 0 84.902 27.265">
    <g data-name="그룹 33">
        <path data-name="패스 46" d="M293.512 324.023c-.22-.167-.095-.4-.1-.6q-.013-9.613-.007-19.226a6.989 6.989 0 0 1 9.153-6.83 5.918 5.918 0 0 1 4.441 4.4 2.09 2.09 0 0 1 .081.761 2.648 2.648 0 0 0 0 1.048q-.017 9.794-.011 19.589a1.339 1.339 0 0 1-.086.754 1.319 1.319 0 0 1-.643.054q-6.094.005-12.187 0a1.9 1.9 0 0 0-.641.05z" transform="translate(-249.456 -297.056)" style="fill:#969696"/>
        <path data-name="패스 47" d="M220.134 303.26a6.957 6.957 0 0 1 9.094-5.882 5.806 5.806 0 0 1 4.521 4.935 5.676 5.676 0 0 1 .033.589 1.614 1.614 0 0 0-.045.646v19.768c0 .671 0 .672-.67.672h-12.254a1.773 1.773 0 0 1-.59-.035 1.31 1.31 0 0 1-.054-.641q-.005-9.7 0-19.4a2.47 2.47 0 0 0-.035-.652z" transform="translate(-193.675 -297.06)" style="fill:#969696"/>
        <path data-name="패스 48" d="M129.314 299.129a5.91 5.91 0 0 1 5.724 4.971 6.632 6.632 0 0 1-.843 4.393 4.706 4.706 0 0 1-3.575 2.372 1.913 1.913 0 0 0-.648-.038h-17.4a1.735 1.735 0 0 1-.647-.041 1.1 1.1 0 0 1-.048-.526c0-3.485.008-6.969-.013-10.454 0-.483.116-.631.617-.629q8.095.027 16.189.009a1.4 1.4 0 0 0 .644-.057z" transform="translate(-111.223 -298.633)" style="fill:#969696"/>
        <path data-name="패스 49" d="M384.828 299.107a5.756 5.756 0 0 1 5.681 6.526 5.238 5.238 0 0 1-3.356 4.705 4.41 4.41 0 0 1-1.626.3q-8.9 0-17.792.007c-.385 0-.556-.057-.554-.505.018-3.543.009-7.086.015-10.629 0-.134-.1-.328.129-.4a.932.932 0 0 0 .523.057h16.457a.917.917 0 0 0 .523-.061z" transform="translate(-305.652 -298.616)" style="fill:#969696"/>
        <path data-name="패스 50" d="M367.3 373.9c-.244-.126-.124-.351-.124-.526-.008-3.485.006-6.97-.019-10.455 0-.5.167-.567.6-.566q8.452.019 16.9.009a5.821 5.821 0 0 1 5.826 6.547 5.413 5.413 0 0 1-2.695 4.427 4.265 4.265 0 0 1-1.8.537 1.451 1.451 0 0 0-.587-.043H367.87c-.184.001-.389-.064-.57.07z" transform="translate(-305.633 -346.782)" style="fill:#969696"/>
        <path data-name="패스 51" d="M115.45 358.8a6.27 6.27 0 1 1-6.272 6.237 6.257 6.257 0 0 1 6.272-6.237z" transform="translate(-109.178 -344.079)" style="fill:#f69412"/>
        <path data-name="패스 52" d="M350.268 341.419q0-10.329.005-20.658c0-.244-.1-.518.12-.731.025.254.072.508.072.763q.006 10.112 0 20.223c0 .164.09.355-.082.5a.157.157 0 0 1-.115-.097z" transform="translate(-292.763 -314.551)" style="fill:#44423f"/>
        <path data-name="패스 53" d="M220.16 342.576c4.243 0 8.486-.015 12.729.018.638.005.739-.2.737-.773q-.028-9.795-.008-19.59c0-.228-.085-.478.1-.682.007.375.021.751.021 1.126q0 9.732.012 19.465c0 .461-.111.581-.578.579-4.2-.019-8.4-.009-12.607-.018-.169 0-.4.136-.515-.123q.049-.086.109-.002z" transform="translate(-193.613 -315.708)" style="fill:#3d3c38"/>
        <path data-name="패스 54" d="M129.014 299.006c-.2.2-.453.107-.68.107-5.334.005-10.668.013-16-.009-.586 0-.717.177-.713.734.025 3.6.013 7.2.013 10.8q.1.068 0 .136c-.253-.087-.135-.3-.135-.454-.008-3.639 0-7.277-.012-10.916 0-.313.055-.445.413-.444q8.471.018 16.942.011a1.033 1.033 0 0 1 .172.035z" transform="translate(-110.923 -298.51)" style="fill:#3f3e3b"/>
        <path data-name="패스 55" d="M220.088 343.721h-.109c-.007-.71-.021-1.421-.021-2.131v-17.655c0-.295.026-.59.04-.885.159.213.085.459.085.689q.008 9.992.005 19.982z" transform="translate(-193.54 -316.853)" style="fill:#44433e"/>
        <path data-name="패스 56" d="M112.152 348.028v-.135h18c.229 0 .478-.081.686.093-.275.023-.551.065-.826.065q-8.725.006-17.45 0c-.135.007-.273-.013-.41-.023z" transform="translate(-111.443 -335.759)" style="fill:#41403d"/>
        <path data-name="패스 57" d="M367.793 410.32c.168-.208.4-.126.61-.126q8.759-.007 17.518 0c.191 0 .4-.064.565.1-.315.021-.631.06-.946.06q-8.668.006-17.336 0c-.137 0-.274-.022-.411-.034z" transform="translate(-306.123 -383.203)" style="fill:#41403d"/>
        <path data-name="패스 58" d="M385.311 299.025c-.176.193-.408.113-.616.113q-8.134.007-16.268 0c-.208 0-.44.079-.617-.113.217-.01.433-.028.65-.028h16.2c.218.003.44.019.651.028z" transform="translate(-306.136 -298.534)" style="fill:#3f3e3b"/>
        <path data-name="패스 59" d="m307.378 409.684.114.092a2.205 2.205 0 0 1-.292.039h-12.978a2.684 2.684 0 0 1-.294-.032c.208-.174.457-.093.686-.094q6.386-.009 12.764-.005z" transform="translate(-249.873 -382.816)" style="fill:#3d3c39"/>
    </g>
</svg>
