<svg xmlns="http://www.w3.org/2000/svg" xmlns:xlink="http://www.w3.org/1999/xlink" width="67.675" height="21.733" viewBox="0 0 67.675 21.733">
  <defs>
    <clipPath id="clip-path">
      <rect width="67.675" height="21.733" fill="none"/>
    </clipPath>
  </defs>
  <g id="반복_그리드_40" data-name="반복 그리드 40" clip-path="url(#clip-path)">
    <g id="그룹_33" data-name="그룹 33">
      <path id="패스_46" data-name="패스 46" d="M293.486,318.551c-.176-.133-.076-.319-.076-.475q-.01-7.663-.005-15.325a5.571,5.571,0,0,1,7.3-5.444,4.718,4.718,0,0,1,3.54,3.51,1.665,1.665,0,0,1,.065.607,2.111,2.111,0,0,0,0,.836q-.014,7.807-.009,15.614a1.068,1.068,0,0,1-.069.6,1.052,1.052,0,0,1-.512.043q-4.857,0-9.715,0A1.517,1.517,0,0,0,293.486,318.551Z" transform="translate(-258.369 -297.056)" fill="#969696"/>
      <path id="패스_47" data-name="패스 47" d="M220.134,302a5.545,5.545,0,0,1,7.249-4.689,4.628,4.628,0,0,1,3.6,3.934,4.525,4.525,0,0,1,.027.469,1.287,1.287,0,0,0-.036.515q0,7.879,0,15.757c0,.535,0,.536-.534.536q-4.884,0-9.768,0a1.414,1.414,0,0,1-.47-.028,1.044,1.044,0,0,1-.043-.511q0-7.732,0-15.464A1.969,1.969,0,0,0,220.134,302Z" transform="translate(-199.044 -297.061)" fill="#969696"/>
      <path id="패스_48" data-name="패스 48" d="M125.773,299.129a4.711,4.711,0,0,1,4.562,3.962,5.286,5.286,0,0,1-.672,3.5,3.751,3.751,0,0,1-2.849,1.89,1.525,1.525,0,0,0-.516-.03q-6.936,0-13.871,0a1.383,1.383,0,0,1-.516-.033.876.876,0,0,1-.038-.419c0-2.778.006-5.555-.01-8.333,0-.385.092-.5.492-.5q6.452.021,12.9.007A1.113,1.113,0,0,0,125.773,299.129Z" transform="translate(-111.352 -298.733)" fill="#969696"/>
      <path id="패스_49" data-name="패스 49" d="M381.246,299.106a4.588,4.588,0,0,1,4.529,5.2,4.176,4.176,0,0,1-2.675,3.751,3.514,3.514,0,0,1-1.3.235q-7.091,0-14.182.006c-.307,0-.443-.046-.442-.4.015-2.824.007-5.649.012-8.473,0-.107-.082-.261.1-.317a.743.743,0,0,0,.417.045q6.559,0,13.117,0A.731.731,0,0,0,381.246,299.106Z" transform="translate(-318.135 -298.715)" fill="#969696"/>
      <path id="패스_50" data-name="패스 50" d="M367.272,371.557c-.194-.1-.1-.28-.1-.419-.006-2.778,0-5.556-.015-8.333,0-.4.133-.452.481-.451q6.737.015,13.475.007a4.64,4.64,0,0,1,4.644,5.218,4.314,4.314,0,0,1-2.148,3.529,3.4,3.4,0,0,1-1.438.428,1.156,1.156,0,0,0-.468-.034q-6.987,0-13.974,0C367.578,371.5,367.414,371.45,367.272,371.557Z" transform="translate(-318.115 -349.941)" fill="#969696"/>
      <path id="패스_51" data-name="패스 51" d="M114.178,358.8a5,5,0,1,1-5,4.971A4.988,4.988,0,0,1,114.178,358.8Z" transform="translate(-109.178 -347.067)" fill="#f69412"/>
      <path id="패스_52" data-name="패스 52" d="M350.265,337.079q0-8.233,0-16.466c0-.195-.083-.413.1-.583.02.2.058.405.058.608q0,8.06,0,16.12c0,.131.072.283-.065.395A.125.125,0,0,1,350.265,337.079Z" transform="translate(-304.427 -315.663)" fill="#44423f"/>
      <path id="패스_53" data-name="패스 53" d="M220.138,338.31c3.382,0,6.765-.012,10.147.014.509,0,.589-.162.587-.616q-.022-7.807-.006-15.615c0-.182-.068-.381.08-.544.006.3.017.6.017.9q0,7.758.009,15.516c0,.368-.089.463-.461.461-3.35-.015-6.7-.007-10.049-.014-.135,0-.317.109-.411-.1Q220.094,338.242,220.138,338.31Z" transform="translate(-198.977 -316.893)" fill="#3d3c38"/>
      <path id="패스_54" data-name="패스 54" d="M125.454,299c-.16.156-.361.086-.542.086-4.251,0-8.5.011-12.755-.007-.467,0-.572.141-.569.585.02,2.871.01,5.741.011,8.612q.077.054,0,.108c-.2-.07-.108-.241-.108-.362-.006-2.9,0-5.8-.009-8.7,0-.25.044-.355.329-.354q6.752.014,13.5.009A.826.826,0,0,1,125.454,299Z" transform="translate(-111.034 -298.602)" fill="#3f3e3b"/>
      <path id="패스_55" data-name="패스 55" d="M220.062,339.527l-.087,0c-.006-.566-.017-1.132-.017-1.7q0-7.036,0-14.072c0-.235.021-.47.032-.705.127.17.067.366.068.549Q220.064,331.564,220.062,339.527Z" transform="translate(-198.9 -318.111)" fill="#44433e"/>
      <path id="패스_56" data-name="패스 56" d="M112.152,348v-.108q7.175,0,14.349,0c.183,0,.381-.064.547.074-.22.018-.439.052-.659.052q-6.955,0-13.909,0C112.371,348.022,112.261,348.006,112.152,348Z" transform="translate(-111.587 -338.219)" fill="#41403d"/>
      <path id="패스_57" data-name="패스 57" d="M367.793,410.291c.134-.166.321-.1.486-.1q6.982-.005,13.964,0c.152,0,.319-.051.45.079-.251.017-.5.048-.754.048q-6.909,0-13.818,0C368.012,410.319,367.9,410.3,367.793,410.291Z" transform="translate(-318.636 -388.676)" fill="#41403d"/>
      <path id="패스_58" data-name="패스 58" d="M381.76,299.019c-.141.154-.326.09-.491.09q-6.484.005-12.967,0c-.166,0-.351.063-.492-.09.173-.008.345-.022.518-.022q6.457,0,12.914,0C381.415,299,381.588,299.012,381.76,299.019Z" transform="translate(-318.65 -298.628)" fill="#3f3e3b"/>
      <path id="패스_59" data-name="패스 59" d="M304.649,409.681l.091.073a1.759,1.759,0,0,1-.232.031q-5.172,0-10.344,0a2.142,2.142,0,0,1-.234-.025c.166-.139.364-.074.547-.075Q299.562,409.678,304.649,409.681Z" transform="translate(-258.812 -388.265)" fill="#3d3c39"/>
    </g>
  </g>
</svg>
