<svg xmlns="http://www.w3.org/2000/svg" xmlns:xlink="http://www.w3.org/1999/xlink" width="11.612" height="12.711" viewBox="0 0 11.612 12.711">
  <defs>
    <clipPath id="clip-path">
      <rect id="사각형_2434" data-name="사각형 2434" width="11.612" height="12.711" fill="#896b48"/>
    </clipPath>
  </defs>
  <g id="그룹_4259" data-name="그룹 4259" clip-path="url(#clip-path)">
    <path id="패스_7417" data-name="패스 7417" d="M10.556,17.157h-9.5A1.056,1.056,0,0,1,0,16.1v-5.63A1.056,1.056,0,0,1,1.056,9.416h9.5a1.057,1.057,0,0,1,1.056,1.056V16.1a1.057,1.057,0,0,1-1.056,1.056M1.056,16.1h9.5v-5.63h-9.5Z" transform="translate(0 -4.446)" fill="#896b48"/>
    <path id="패스_7418" data-name="패스 7418" d="M10.884,5.9a.528.528,0,0,1-.528-.528V3.915a2.859,2.859,0,0,0-5.718,0V5.368a.528.528,0,1,1-1.056,0V3.915a3.915,3.915,0,0,1,7.829,0V5.368a.528.528,0,0,1-.528.528" transform="translate(-1.691 0)" fill="#896b48"/>
    <path id="패스_7419" data-name="패스 7419" d="M10.016,13.338A1.1,1.1,0,0,0,9.487,15.4v1.238h1.056V15.4a1.1,1.1,0,0,0-.527-2.059" transform="translate(-4.21 -6.298)" fill="#896b48"/>
  </g>
</svg>
