<svg xmlns="http://www.w3.org/2000/svg" width="64.901" height="20.842" viewBox="0 0 64.901 20.842">
    <g data-name="그룹 21">
        <path data-name="패스 46" d="M293.482 317.67c-.168-.128-.073-.306-.073-.456q-.01-7.348-.005-14.7a5.342 5.342 0 0 1 7-5.221 4.524 4.524 0 0 1 3.4 3.366 1.6 1.6 0 0 1 .062.582 2.025 2.025 0 0 0 0 .8q-.013 7.487-.009 14.974a1.023 1.023 0 0 1-.066.576 1.009 1.009 0 0 1-.491.042h-9.316a1.454 1.454 0 0 0-.502.037z" transform="translate(-259.804 -297.056)" style="fill:#464542"/>
        <path data-name="패스 47" d="M220.134 301.8a5.318 5.318 0 0 1 6.952-4.5 4.438 4.438 0 0 1 3.456 3.772 4.337 4.337 0 0 1 .026.45 1.234 1.234 0 0 0-.034.494v15.111c0 .513 0 .514-.512.514h-9.367a1.356 1.356 0 0 1-.451-.027 1 1 0 0 1-.041-.49v-14.83a1.888 1.888 0 0 0-.029-.494z" transform="translate(-199.908 -297.061)" style="fill:#464542"/>
        <path data-name="패스 48" d="M125.2 299.129a4.518 4.518 0 0 1 4.375 3.8 5.07 5.07 0 0 1-.644 3.358 3.6 3.6 0 0 1-2.731 1.813 1.462 1.462 0 0 0-.5-.029h-13.3a1.327 1.327 0 0 1-.495-.032.84.84 0 0 1-.037-.4c0-2.664.006-5.328-.01-7.991 0-.369.089-.482.471-.481q6.188.021 12.376.007a1.067 1.067 0 0 0 .495-.045z" transform="translate(-111.373 -298.749)" style="fill:#464542"/>
        <path data-name="패스 49" d="M380.669 299.106a4.4 4.4 0 0 1 4.343 4.988 4 4 0 0 1-2.565 3.6 3.37 3.37 0 0 1-1.243.226q-6.8 0-13.6.005c-.294 0-.425-.044-.423-.386.014-2.708.007-5.417.012-8.125 0-.1-.078-.251.1-.3a.713.713 0 0 0 .4.043h12.58a.7.7 0 0 0 .396-.051z" transform="translate(-320.145 -298.731)" style="fill:#464542"/>
        <path data-name="패스 50" d="M367.267 371.18c-.186-.1-.095-.268-.095-.4-.006-2.664 0-5.328-.015-7.992 0-.38.128-.434.461-.433q6.461.015 12.923.007a4.45 4.45 0 0 1 4.454 5 4.137 4.137 0 0 1-2.06 3.384 3.26 3.26 0 0 1-1.379.41 1.109 1.109 0 0 0-.449-.033h-13.4c-.147.004-.307-.046-.44.057z" transform="translate(-320.125 -350.45)" style="fill:#464542"/>
        <path data-name="패스 51" d="M113.973 358.8a4.793 4.793 0 1 1-4.795 4.767 4.783 4.783 0 0 1 4.795-4.767z" transform="translate(-109.178 -347.548)" style="fill:#f69412"/>
        <path data-name="패스 52" d="M350.264 336.38v-15.791c0-.187-.079-.4.091-.559.019.194.055.389.055.583v15.459c0 .125.069.271-.063.379a.12.12 0 0 1-.083-.071z" transform="translate(-306.306 -315.842)" style="fill:#44423f"/>
        <path data-name="패스 53" d="M220.135 337.623c3.244 0 6.487-.011 9.731.014.488 0 .565-.155.563-.591q-.021-7.487-.006-14.975c0-.174-.065-.365.077-.522.006.287.016.574.016.861q0 7.44.009 14.88c0 .353-.085.444-.442.443-3.212-.015-6.425-.007-9.637-.014-.129 0-.3.1-.394-.094q.04-.067.083-.002z" transform="translate(-199.841 -317.084)" style="fill:#3d3c38"/>
        <path data-name="패스 54" d="M124.881 299c-.153.15-.346.082-.52.082-4.077 0-8.155.01-12.232-.007-.448 0-.548.135-.545.561.019 2.753.01 5.506.01 8.259q.074.052 0 .1c-.194-.067-.1-.231-.1-.347-.006-2.782 0-5.563-.009-8.344 0-.24.042-.34.316-.34q6.475.013 12.951.008a.792.792 0 0 1 .129.028z" transform="translate(-111.052 -298.617)" style="fill:#3f3e3b"/>
        <path data-name="패스 55" d="M220.057 338.852h-.083c-.006-.543-.016-1.086-.016-1.629v-13.5c0-.225.02-.451.031-.676.122.163.065.351.065.527q.005 7.641.003 15.278z" transform="translate(-199.763 -318.313)" style="fill:#44433e"/>
        <path data-name="패스 56" d="M112.152 347.993v-.1h13.761c.175 0 .365-.062.524.071-.211.017-.421.05-.632.05h-13.339c-.104.002-.209-.014-.314-.021z" transform="translate(-111.61 -338.614)" style="fill:#41403d"/>
        <path data-name="패스 57" d="M367.793 410.287c.129-.159.308-.1.466-.1q6.7-.005 13.392 0c.146 0 .306-.049.432.076-.241.016-.482.046-.723.046h-13.252c-.108.004-.208-.009-.315-.022z" transform="translate(-320.651 -389.557)" style="fill:#41403d"/>
        <path data-name="패스 58" d="M381.189 299.018c-.135.147-.312.087-.471.087h-12.436c-.159 0-.337.061-.472-.086.166-.007.331-.021.5-.021h12.385c.162.002.328.013.494.02z" transform="translate(-320.665 -298.643)" style="fill:#3f3e3b"/>
        <path data-name="패스 59" d="m304.21 409.681.087.07a1.686 1.686 0 0 1-.223.03h-9.92a2.043 2.043 0 0 1-.224-.024c.159-.133.349-.071.524-.071q4.877-.008 9.756-.005z" transform="translate(-260.251 -389.142)" style="fill:#3d3c39"/>
    </g>
</svg>
